#!OML:ASF H:\ManfredETheater\Project 1\Capture day 1\Session 1\subject.ASF
:FULLY-SPECIFIED
:DEGREES
47
root 4.32642 15.4765 25.9853 -165.391 -5.72582 174.311
lowerback 15.8604 -4.06027 -1.15202
upperback 0.127227 -5.51511 3.76682
thorax -8.25937 -2.6322 5.96736
lowerneck -20.733 0.975376 -0.195738
upperneck -2.59468 2.44621 -3.47615
head 2.81033 1.46851 -0.889954
rclavicle 5.00937e-014 -5.24792e-014
rhumerus -64.1009 -8.87322 -65.7685
rradius 67.3648
rwrist -3.47
rhand -31.8726 1.59918
rfingers 7.12502
rthumb -5.12568 -28.3188
lclavicle 5.00937e-014 -5.24792e-014
lhumerus -33.3225 -20.8344 96.572
lradius 99.9085
lwrist -1.63258
lhand -28.2615 -19.7565
lfingers 7.12502
lthumb -1.63849 10.217
rfemur -62.7871 -3.59547 19.6268
rtibia 61.773
rfoot -8.79604 -10.5896
rtoes -12.8193
lfemur -5.46777 -5.42664 -24.0481
ltibia 72.3078
lfoot 2.10521 -8.87799
ltoes -11.4747
48
root 4.30023 15.5182 25.5949 -166.158 -4.94959 175.544
lowerback 16.5346 -3.76409 -0.0470235
upperback 0.168586 -4.92804 3.99401
thorax -8.72439 -2.39023 5.53283
lowerneck -20.5899 1.02905 -0.0357898
upperneck -2.82377 2.49285 -3.57655
head 2.70817 1.49879 -0.948975
rclavicle -2.18663e-014 5.24792e-014
rhumerus -60.2288 -9.13694 -67.3924
rradius 67.2778
rwrist -3.20225
rhand -31.7839 1.71394
rfingers 7.12502
rthumb -5.04009 -28.2061
lclavicle -2.18663e-014 5.24792e-014
lhumerus -32.3712 -19.2203 95.2486
lradius 97.5768
lwrist 0.861084
lhand -27.8908 -19.4315
lfingers 7.12502
lthumb -1.28042 10.5444
rfemur -60.7787 -2.65223 20.8811
rtibia 62.3128
rfoot -10.2453 -11.0292
rtoes -13.3164
lfemur -8.20904 -3.45464 -22.5649
ltibia 78.531
lfoot 1.04188 -9.5656
ltoes -10.821
49
root 4.28077 15.6079 25.204 -166.945 -4.2601 176.811
lowerback 17.25 -3.51933 1.10929
upperback 0.207524 -4.38624 4.20653
thorax -9.19939 -2.18053 5.05509
lowerneck -20.4976 1.08388 0.121344
upperneck -2.84925 2.52635 -3.6479
head 2.6871 1.51114 -0.998644
rclavicle -1.07344e-014 -6.99722e-014
rhumerus -56.2334 -8.86362 -69.3619
rradius 67.6458
rwrist -2.76815
rhand -31.4814 2.0065
rfingers 7.12502
rthumb -4.74794 -27.9203
lclavicle -1.07344e-014 -6.99722e-014
lhumerus -31.5391 -17.8183 93.679
lradius 95.8284
lwrist 3.3615
lhand -27.4182 -19.2381
lfingers 7.12502
lthumb -0.823995 10.7401
rfemur -58.3139 -1.89064 22.2358
rtibia 62.4225
rfoot -11.8031 -11.403
rtoes -13.9222
lfemur -11.0601 -1.48659 -20.8522
ltibia 84.6278
lfoot 0.191307 -10.694
ltoes -10.0358
50
root 4.26371 15.6519 24.8342 -167.692 -3.65424 178.065
lowerback 17.9366 -3.32523 2.25052
upperback 0.218054 -3.89747 4.41241
thorax -9.66872 -2.00277 4.58002
lowerneck -20.4536 1.1424 0.266405
upperneck -2.65285 2.55217 -3.71899
head 2.75344 1.50631 -1.04663
rclavicle 5.08889e-014 -4.45278e-014
rhumerus -52.221 -7.9358 -71.5433
rradius 68.5483
rwrist -2.17999
rhand -30.9808 2.42768
rfingers 7.12502
rthumb -4.26464 -27.5094
lclavicle 5.08889e-014 -4.45278e-014
lhumerus -30.904 -16.6705 91.8702
lradius 94.8104
lwrist 5.43376
lhand -26.8969 -19.1751
lfingers 7.12502
lthumb -0.320483 10.8044
rfemur -55.9977 -1.31147 23.642
rtibia 62.4294
rfoot -13.2079 -11.6477
rtoes -14.5071
lfemur -14.227 0.476954 -18.9709
ltibia 90.9322
lfoot -0.756073 -12.0855
ltoes -9.36081
